<?xml version="1.0"?>
<svg version="1.1" xmlns="http://www.w3.org/2000/svg" xmlns:xlink="http://www.w3.org/1999/xlink" width="640" height="640">
    <desc iVinci="yes" version="4.6" gridStep="20" showGrid="no" snapToGrid="no" codePlatform="0"/>
    <g id="Layer1" name="Layer 1" opacity="1">
        <g id="Shape1">
            <desc shapeID="1" type="0" basicInfo-basicType="0" basicInfo-roundedRectRadius="12" basicInfo-polygonSides="6" basicInfo-starPoints="5" bounding="rect(-290.585,-288,581.17,576)" text="" font-familyName="" font-pixelSize="20" font-bold="0" font-underline="0" font-alignment="1" strokeStyle="0" markerStart="0" markerEnd="0" shadowEnabled="0" shadowOffsetX="0" shadowOffsetY="2" shadowBlur="4" shadowOpacity="160" blurEnabled="0" blurRadius="4" transform="matrix(1,0,0,1,320,320)" pers-center="0,0" pers-size="0,0" pers-start="0,0" pers-end="0,0" locked="0" mesh="" flag=""/>
            <path id="shapePath1" d="M188,90 L229,37 L220,121 L262,129 L255,174 L308,262 L311,161 L291,176 L320,32 L349,176 L329,161 L332,262 L385,174 L378,129 L420,121 L411,37 L452,90 L453.186,90.6846 L519.585,99.6917 L442.339,133.897 L456.411,174.271 L413.94,190.708 L364.229,280.608 L453.198,232.706 L430.208,222.885 L569.415,176 L459.208,273.115 L462.198,248.294 L376.229,301.392 L478.94,303.292 L514.411,274.729 L542.339,307.103 L610.585,257.308 L585.186,319.315 L585.186,320.685 L610.585,382.692 L542.339,332.897 L514.411,365.271 L478.94,336.708 L376.229,338.608 L462.198,391.706 L459.208,366.885 L569.415,464 L430.208,417.115 L453.198,407.294 L364.229,359.392 L413.94,449.292 L456.411,465.729 L442.339,506.103 L519.585,540.308 L453.186,549.315 L452,550 L411,603 L420,519 L378,511 L385,466 L332,378 L329,479 L349,464 L320,608 L291,464 L311,479 L308,378 L255,466 L262,511 L220,519 L229,603 L188,550 L186.814,549.315 L120.415,540.308 L197.661,506.103 L183.589,465.729 L226.06,449.292 L275.771,359.392 L186.802,407.294 L209.792,417.115 L70.5847,464 L180.792,366.885 L177.802,391.706 L263.771,338.608 L161.06,336.708 L125.589,365.271 L97.6609,332.897 L29.4148,382.692 L54.8141,320.685 L54.8141,319.315 L29.4148,257.308 L97.6609,307.103 L125.589,274.729 L161.06,303.292 L263.771,301.392 L177.802,248.294 L180.792,273.115 L70.5847,176 L209.792,222.885 L186.802,232.706 L275.771,280.608 L226.06,190.708 L183.589,174.271 L197.661,133.897 L120.415,99.6917 L186.814,90.6846 L188,90 Z" style="stroke: none;fill-rule:nonzero;fill:#ffffff;fill-opacity:1;"/>
        </g>
    </g>
</svg>
