<?xml version="1.0" standalone="yes"?><!DOCTYPE svg PUBLIC "-//W3C//DTD SVG 1.1//EN" "http://www.w3.org/Graphics/SVG/1.1/DTD/svg11.dtd"><svg width="640px" height="640px" xmlns="http://www.w3.org/2000/svg" version="1.1"><path d="M-124.70765814495915,-216 L-40,-168L-10,-39L-21,-172L0,-288L0,-288L21,-172L10,-39L40,-168L124.70765814495915,-216L124.70765814495914,-216L125.4922678357857,-118.64101615137756L28.774990747593108,-28.16025403784439L138.45636945092343,-104.18653347947323L249.4153162899183,-144.00000000000003L249.4153162899183,-144.00000000000003L159.45636945092343,-67.8134665205268L38.77499074759311,-10.839745962155618L165.4922678357857,-49.35898384862247L249.4153162899183,-4.263256414560601e-14L249.41531628991834,-5.684341886080802e-14L165.49226783578573,49.3589838486224L38.774990747593115,10.839745962155604L159.4563694509235,67.81346652052675L249.4153162899184,143.99999999999994L249.4153162899184,143.99999999999994L138.4563694509235,104.18653347947317L28.774990747593115,28.160254037844382L125.49226783578573,118.64101615137751L124.70765814495923,215.99999999999997L124.70765814495918,215.99999999999997L40.00000000000002,168L10.000000000000005,39L21.00000000000002,172L3.5269827815443773e-14,288L3.5269827815443773e-14,288L-20.99999999999998,172L-9.999999999999995,39L-39.99999999999998,168L-124.70765814495913,216.00000000000003L-124.70765814495908,216.00000000000006L-125.49226783578565,118.64101615137761L-28.774990747593097,28.160254037844403L-138.45636945092343,104.18653347947328L-249.41531628991828,144.0000000000001L-249.41531628991828,144.0000000000001L-159.45636945092343,67.81346652052686L-38.77499074759311,10.839745962155632L-165.4922678357857,49.35898384862253L-249.41531628991837,1.2789769243681803e-13L-249.4153162899183,-4.263256414560601e-14L-165.4922678357857,-49.35898384862247L-38.77499074759311,-10.839745962155618L-159.45636945092343,-67.8134665205268L-249.4153162899183,-144.00000000000003L-249.4153162899183,-144.00000000000003L-138.45636945092343,-104.18653347947323L-28.774990747593108,-28.16025403784439L-125.4922678357857,-118.64101615137756L-124.70765814495914,-216L-124.70765814495915,-216Z" stroke="none" fill="#FFF" transform="translate(320,320)" /></svg>
