<?xml version="1.0" standalone="yes"?><!DOCTYPE svg PUBLIC "-//W3C//DTD SVG 1.1//EN" "http://www.w3.org/Graphics/SVG/1.1/DTD/svg11.dtd"><svg width="640px" height="640px" xmlns="http://www.w3.org/2000/svg" version="1.1"><path d="M-124.70765814495915,-216 L-36,-102L-16,-139L-19,-274L-137,-268L-144,-315L0,-306L0,-306L144,-315L137,-268L19,-274L16,-139L36,-102L124.70765814495915,-216L124.70765814495914,-216L70.33459118601273,-82.1769145362398L112.37753112603697,-83.35640646055103L227.79096063693618,-153.45448267190437L163.59480821422954,-252.64548031846812L200.79800219209818,-282.20765814495917L265.00377355803823,-153.00000000000003L265.00377355803823,-153.00000000000003L344.7980021920982,-32.792341855040874L300.59480821422954,-15.35451968153194L246.79096063693618,-120.5455173280957L128.37753112603698,-55.643593539449L106.33459118601273,-19.823085463760226L249.4153162899183,-4.263256414560601e-14L249.41531628991834,-5.684341886080802e-14L106.33459118601274,19.82308546376018L128.37753112603698,55.64359353944895L246.79096063693623,120.5455173280956L300.5948082142296,15.354519681531826L344.79800219209824,32.792341855040746L265.0037735580383,152.99999999999994L265.0037735580383,152.99999999999994L200.79800219209827,282.20765814495917L163.59480821422963,252.64548031846806L227.79096063693623,153.4544826719043L112.377531126037,83.356406460551L70.33459118601277,82.17691453623978L124.70765814495923,215.99999999999997L124.70765814495918,215.99999999999997L36.000000000000014,102L16.000000000000018,139L19.000000000000032,274L137.00000000000003,268L144.00000000000003,315L3.7474192053909006e-14,306L3.7474192053909006e-14,306L-143.99999999999997,315L-136.99999999999997,268L-18.999999999999968,274L-15.999999999999982,139L-35.999999999999986,102L-124.70765814495913,216.00000000000003L-124.70765814495908,216.00000000000006L-70.33459118601272,82.17691453623982L-112.37753112603696,83.35640646055107L-227.79096063693615,153.45448267190443L-163.59480821422946,252.64548031846817L-200.79800219209807,282.2076581449593L-265.0037735580382,153.00000000000014L-265.0037735580382,153.00000000000014L-344.7980021920982,32.792341855041L-300.5948082142296,15.35451968153204L-246.79096063693615,120.54551732809578L-128.37753112603696,55.64359353944904L-106.33459118601274,19.823085463760258L-249.41531628991837,1.2789769243681803e-13L-249.4153162899183,-4.263256414560601e-14L-106.33459118601273,-19.823085463760226L-128.37753112603698,-55.643593539449L-246.79096063693618,-120.5455173280957L-300.59480821422954,-15.35451968153194L-344.7980021920982,-32.792341855040874L-265.00377355803823,-153.00000000000003L-265.00377355803823,-153.00000000000003L-200.79800219209818,-282.20765814495917L-163.59480821422954,-252.64548031846812L-227.79096063693618,-153.45448267190437L-112.37753112603697,-83.35640646055103L-70.33459118601273,-82.1769145362398L-124.70765814495914,-216L-124.70765814495915,-216Z" stroke="none" fill="#fff" transform="translate(320,320)" /></svg>
