<?xml version="1.0" standalone="yes"?><!DOCTYPE svg PUBLIC "-//W3C//DTD SVG 1.1//EN" "http://www.w3.org/Graphics/SVG/1.1/DTD/svg11.dtd"><svg width="640px" height="640px" xmlns="http://www.w3.org/2000/svg" version="1.1"><path d="M-28,-50 L38,-108L-76,-174L74,-209L-36,-235L-26,-263L-119,-252L0,-288L0,-288L119,-252L26,-263L36,-235L-74,-209L76,-174L-38,-108L28,-50L29.301270189221928,-49.24871130596429L112.53074360871936,-21.091034656191347L112.68842025849233,-152.81793068761735L217.99930939094767,-40.414120119951576L185.51596988934307,-148.67691453623982L214.76468119530736,-154.01666049839542L158.7384017536785,-229.05702305034822L249.4153162899183,-144.00000000000003L249.4153162899183,-144.00000000000003L277.73840175367854,-22.942976949651836L240.76468119530736,-108.98333950160463L221.51596988934307,-86.32308546376024L143.99930939094767,-168.58587988004848L188.68842025849233,-21.18206931238268L74.53074360871936,-86.90896534380869L57.30127018922194,-0.7512886940357255L57.30127018922193,0.7512886940357042L74.5307436087194,86.90896534380866L188.68842025849233,21.18206931238261L143.9993093909477,168.58587988004842L221.51596988934313,86.32308546376015L240.76468119530742,108.98333950160453L277.73840175367854,22.942976949651722L249.4153162899184,143.99999999999994L249.4153162899184,143.99999999999994L158.7384017536786,229.05702305034816L214.76468119530742,154.01666049839537L185.51596988934313,148.67691453623974L217.9993093909477,40.41412011995149L112.68842025849237,152.81793068761732L112.53074360871938,21.091034656191304L29.301270189221945,49.24871130596428L28.000000000000007,50L-37.999999999999986,108L76.00000000000001,174L-73.99999999999997,209L36.00000000000003,235L26.000000000000032,263L119.00000000000003,251.99999999999997L3.5269827815443773e-14,288L3.5269827815443773e-14,288L-118.99999999999997,252.00000000000003L-25.999999999999968,263L-35.99999999999997,235L74.00000000000003,209L-75.99999999999999,174L38.000000000000014,108L-27.999999999999993,50L-29.30127018922191,49.2487113059643L-112.53074360871938,21.09103465619139L-112.68842025849227,152.81793068761738L-217.99930939094767,40.41412011995165L-185.515969889343,148.67691453623988L-214.76468119530733,154.0166604983955L-158.73840175367843,229.05702305034828L-249.41531628991828,144.0000000000001L-249.41531628991828,144.0000000000001L-277.73840175367854,22.942976949651936L-240.76468119530733,108.98333950160472L-221.51596988934307,86.32308546376032L-143.99930939094762,168.58587988004854L-188.68842025849233,21.18206931238275L-74.53074360871935,86.90896534380872L-57.30127018922194,0.7512886940357433L-57.30127018922194,-0.7512886940357255L-74.53074360871936,-86.90896534380869L-188.68842025849233,-21.18206931238268L-143.99930939094767,-168.58587988004848L-221.51596988934307,-86.32308546376024L-240.76468119530736,-108.98333950160463L-277.73840175367854,-22.942976949651836L-249.4153162899183,-144.00000000000003L-249.4153162899183,-144.00000000000003L-158.7384017536785,-229.05702305034822L-214.76468119530736,-154.01666049839542L-185.51596988934307,-148.67691453623982L-217.99930939094767,-40.414120119951576L-112.68842025849233,-152.81793068761735L-112.53074360871936,-21.091034656191347L-29.301270189221928,-49.24871130596429L-28,-50Z" stroke="none" fill="#fff" transform="translate(320,320)" /></svg>
