<?xml version="1.0" encoding="UTF-8"?>
<svg width="145px" height="145px" viewBox="0 0 145 145" version="1.1" xmlns="http://www.w3.org/2000/svg" xmlns:xlink="http://www.w3.org/1999/xlink">
    <g id="Page-1" stroke="none" stroke-width="1" fill="none" fill-rule="evenodd">
        <g id="Group-2" fill="#FFFFFF">
            <g id="Group" transform="translate(71.000000, 41.500000) scale(1, -1) translate(-71.000000, -41.500000) ">
                <path d="M113.629122,27.3391174 C128.86861,27.3391174 141.225017,39.6899986 141.225017,54.9212203 C141.225017,70.1542464 128.86861,82.5056087 113.629122,82.5056087 C98.3879492,82.5056087 86.0315424,70.1542464 86.0315424,54.9212203 C86.0315424,39.6899986 98.3879492,27.3391174 113.629122,27.3391174" id="big_circ"></path>
                <path d="M51.4308356,27.3391174 C66.669722,27.3391174 79.0242034,39.6899986 79.0242034,54.9212203 C79.0242034,70.1542464 66.669722,82.5056087 51.4308356,82.5056087 L51.4308356,27.3391174" id="big_semi"></path>
                <path d="M51.4308356,0.0991188406 C43.9059186,0.0991188406 37.807139,6.19637101 37.807139,13.7162913 C37.807139,21.2400609 43.9059186,27.3391174 51.4308356,27.3391174 L51.4308356,0.0991188406" id="small_semi"></path>
                <path d="M13.6251407,0.0991188406 C6.10015153,0.0991188406 0,6.19637101 0,13.7162913 C0,21.2400609 6.10015153,27.3391174 13.6251407,27.3391174 C21.1510203,27.3391174 27.250161,21.2400609 27.250161,13.7162913 C27.250161,6.19637101 21.1510203,0.0991188406 13.6251407,0.0991188406" id="small_circ"></path>
            </g>
            <g id="Group" transform="translate(71.000000, 116.000000) scale(1, -1) translate(-71.000000, -116.000000) translate(0.000000, 96.000000)">
                <path d="M1.10117,39.2539 L1.10117,28.9824 C1.10117,26.918 1.5332,22.6211 6.47695,22.6211 C10.6773,22.6211 12.0934,25.0938 12.0934,28.9824 L12.0934,39.2539 L13.1492,39.2539 L13.1492,28.9824 C13.1492,24.9023 11.6133,21.709 6.47695,21.709 C0.38125,21.709 0.0453125,26.7012 0.0453125,28.9824 L0.0453125,39.2539 L1.10117,39.2539" id="u"></path>
                <path d="M17.9016,34.4531 L18.8129,34.4531 L18.8129,31.8145 L18.8613,31.8145 C19.4852,33.6621 21.357,34.7422 23.2773,34.7422 C27.6211,34.7422 27.6695,31.2617 27.6695,29.75 L27.6695,22.1172 L26.7574,22.1172 L26.7574,29.918 C26.7574,31.1895 26.6133,33.9492 23.2527,33.9492 C20.4934,33.9492 18.8129,31.8145 18.8129,28.7891 L18.8129,22.1172 L17.9016,22.1172 L17.9016,34.4531" id="n"></path>
                <path d="M32.7523,22.1172 L32.7523,34.4531 L33.6641,34.4531 L33.6641,22.1172 L32.7523,22.1172 L32.7523,22.1172 Z M32.7523,36.7812 L32.7523,39.2539 L33.6641,39.2539 L33.6641,36.7812 L32.7523,36.7812 L32.7523,36.7812 Z" id="path26"></path>
                <polyline id="path28" points="43.5934 22.1172 42.4648 22.1172 37.4973 34.4531 38.5531 34.4531 43.0172 23.1738 43.0648 23.1738 47.241 34.4531 48.2488 34.4531 43.5934 22.1172"></polyline>
                <path d="M52.3672,28.957 C52.559,31.4062 54.1672,33.9492 56.9031,33.9492 C59.7352,33.9492 61.3672,31.5496 61.4148,28.957 L52.3672,28.957 L52.3672,28.957 Z M62.327,28.166 C62.4949,31.6934 60.7672,34.7422 56.9031,34.7422 C53.1832,34.7422 51.407,31.4531 51.4551,28.0703 C51.407,24.6621 53.3031,21.8301 56.9031,21.8301 C59.8309,21.8301 61.7512,23.4141 62.2309,26.2941 L61.3191,26.2941 C60.8871,24.0137 59.2309,22.6211 56.9031,22.6211 C53.8551,22.6211 52.3191,25.2617 52.3672,28.166 L62.327,28.166 L62.327,28.166 Z" id="path30"></path>
                <path d="M68.1207,31.718 L68.193,31.718 C68.6727,33.3262 70.6887,34.6211 72.9211,34.5254 L72.9211,33.6133 C71.9605,33.7344 70.6168,33.4941 69.5129,32.4141 C68.6008,31.4773 68.2168,30.7102 68.1207,28.8613 L68.1207,22.1172 L67.2086,22.1172 L67.2086,34.4531 L68.1207,34.4531 L68.1207,31.718" id="path32"></path>
                <path d="M76.9172,26.2219 C77.0613,23.9414 78.7645,22.6211 80.9973,22.6211 C82.6047,22.6211 84.9094,23.1016 84.9094,25.2383 C84.9094,27.3262 82.7977,27.6379 80.6848,28.0703 C78.5496,28.502 76.4363,29.0535 76.4363,31.5742 C76.4363,34.0215 78.8137,34.7422 80.9016,34.7422 C83.5168,34.7422 85.4617,33.6133 85.4617,30.8059 L84.5496,30.8059 C84.5242,33.0371 82.9656,33.9492 80.9016,33.9492 C79.2219,33.9492 77.3484,33.3262 77.3484,31.5742 C77.3484,29.6055 79.4598,29.2941 81.452,28.8613 C83.9016,28.4062 85.8215,27.8301 85.8215,25.2383 C85.8215,22.5742 83.157,21.8301 80.9973,21.8301 C78.1887,21.8301 76.077,23.3418 76.0051,26.2219 L76.9172,26.2219" id="path34"></path>
                <path d="M91.1312,22.1172 L91.1312,34.4531 L92.0434,34.4531 L92.0434,22.1172 L91.1312,22.1172 L91.1312,22.1172 Z M91.1312,36.7812 L91.1312,39.2539 L92.0434,39.2539 L92.0434,36.7812 L91.1312,36.7812 L91.1312,36.7812 Z" id="path36"></path>
                <path d="M101.946,33.6621 L99.2582,33.6621 L99.2582,25.0461 C99.2582,23.0535 100.194,22.8613 101.922,22.9102 L101.922,22.1172 C100.049,21.998 98.2504,22.2617 98.3461,25.0461 L98.3461,33.6621 L96.0648,33.6621 L96.0648,34.4531 L98.3461,34.4531 L98.3461,38.2941 L99.2582,38.2941 L99.2582,34.4531 L101.946,34.4531 L101.946,33.6621" id="path38"></path>
                <path d="M104.317,34.4531 L105.397,34.4531 L109.981,23.1973 L114.205,34.4531 L115.237,34.4531 L109.957,20.798 C109.454,19.5977 109.045,18.6621 108.518,18.2539 C107.868,17.75 107.028,17.7012 105.637,17.7012 L105.637,18.4941 C106.932,18.4941 107.58,18.6621 108.205,19.2852 C108.565,19.6453 108.901,20.5574 109.477,22.1895 L104.317,34.4531" id="path40"></path>
                <path d="M122.162,28.2852 C122.162,31.2383 123.819,33.9492 126.914,33.9492 C130.01,33.9492 131.666,31.2383 131.666,28.2852 C131.666,25.334 130.01,22.6211 126.914,22.6211 C123.819,22.6211 122.162,25.334 122.162,28.2852 L122.162,28.2852 Z M121.25,28.2852 C121.25,24.7812 123.291,21.8301 126.914,21.8301 C130.539,21.8301 132.579,24.7812 132.579,28.2852 C132.579,31.7891 130.539,34.7422 126.914,34.7422 C123.291,34.7422 121.25,31.7891 121.25,28.2852 L121.25,28.2852 Z" id="path42"></path>
                <path d="M135.832,33.6621 L135.832,34.4531 L138.041,34.4531 L138.041,36.998 C138.041,38.7258 139.264,39.4453 140.752,39.4453 C141.114,39.4453 141.473,39.3984 141.832,39.3262 L141.832,38.5332 C141.473,38.6055 141.114,38.6543 140.752,38.6543 C139.745,38.6543 138.954,38.2941 138.954,36.9258 L138.954,34.4531 L141.52,34.4531 L141.52,33.6621 L138.954,33.6621 L138.954,22.1172 L138.041,22.1172 L138.041,33.6621 L135.832,33.6621" id="path44"></path>
                <path d="M5.20312,12.7832 L7.50625,12.7832 C8.77539,12.7832 9.95039,12.6895 9.95039,11.1621 C9.95039,9.4707 8.54062,9.37617 7.20078,9.37617 L5.20312,9.37617 L5.20312,12.7832 L5.20312,12.7832 Z M0.0332031,0.304688 L5.20312,0.304688 L5.20312,5.38086 L8.2582,5.38086 C12.1121,5.38086 14.8383,7.28516 14.8383,11.3496 C14.8383,13.7473 13.2402,17.084 8.68125,17.084 L0.0332031,17.084 L0.0332031,0.304688 L0.0332031,0.304688 Z" id="path46"></path>
                <path d="M23.9559,6.41484 C23.9559,5.12305 23.7211,3.38398 21.9586,3.38398 C20.1965,3.38398 19.9613,5.12305 19.9613,6.41484 C19.9613,7.70703 20.1965,9.42383 21.9586,9.42383 C23.7211,9.42383 23.9559,7.70703 23.9559,6.41484 L23.9559,6.41484 Z M28.6094,6.41484 C28.6094,9.79883 26.541,12.8066 21.9586,12.8066 C17.3762,12.8066 15.3082,9.79883 15.3082,6.41484 C15.3082,3.03125 17.3762,0 21.9586,0 C26.541,0 28.6094,3.03125 28.6094,6.41484 L28.6094,6.41484 Z" id="path48"></path>
                <path d="M30.2766,12.502 L34.741,12.502 L34.741,10.5508 L34.7883,10.5508 C35.5398,12.0078 36.5273,12.8066 38.2191,12.8066 C38.6895,12.8066 39.1355,12.7363 39.582,12.6191 L39.582,8.50664 C39.1121,8.67188 38.6895,8.8125 37.7488,8.8125 C35.916,8.8125 34.9293,7.73047 34.9293,5.12305 L34.9293,0.304688 L30.2766,0.304688 L30.2766,12.502" id="path50"></path>
                <path d="M48.1355,12.502 L50.627,12.502 L50.627,9.63477 L48.1355,9.63477 L48.1355,5.38086 C48.1355,4.25273 48.3945,3.75977 49.5691,3.75977 C49.9219,3.75977 50.2742,3.7832 50.627,3.83008 L50.627,0.304688 C49.6871,0.304688 48.6293,0.164062 47.6426,0.164062 C45.6684,0.164062 43.4828,0.469531 43.4828,3.80664 L43.4828,9.63477 L41.4148,9.63477 L41.4148,12.502 L43.4828,12.502 L43.4828,16.2148 L48.1355,16.2148 L48.1355,12.502" id="path52"></path>
                <path d="M60.334,8.95312 C60.3105,9.35234 60.0992,9.6582 59.7934,9.86914 C59.5117,10.1047 59.1355,10.2227 58.7598,10.2227 C58.1016,10.2227 57.3496,10.0812 57.3496,9.28203 C57.3496,8.92969 57.6316,8.76562 57.8902,8.64766 C58.6656,8.31836 60.4281,8.22461 61.9789,7.70703 C63.5305,7.21484 64.893,6.29805 64.893,4.30078 C64.893,0.916016 61.6504,0 58.6891,0 C55.8223,0 52.6734,1.15156 52.6023,4.30078 L57.0438,4.30078 C57.068,3.87695 57.2559,3.52539 57.6086,3.21875 C57.8434,3.00781 58.2895,2.86719 58.8535,2.86719 C59.4648,2.86719 60.4281,3.10156 60.4281,3.80664 C60.4281,4.51172 60.0289,4.72266 57.8668,5.09961 C54.3184,5.71016 52.8848,6.83789 52.8848,8.92969 C52.8848,12.0078 56.198,12.8066 58.6422,12.8066 C61.2738,12.8066 64.4469,12.0781 64.5641,8.95312 L60.334,8.95312" id="path54"></path>
                <path d="M66.7262,12.502 L71.2145,12.502 L71.2145,10.8809 L71.2613,10.8809 C72.2012,12.2898 73.5645,12.8066 75.2566,12.8066 C76.573,12.8066 77.9836,12.125 78.5461,10.9043 C78.7352,11.0449 79.6746,12.8066 82.7059,12.8066 C85.8309,12.8066 86.8895,10.6445 86.8895,8.67188 L86.8895,0.304688 L82.2352,0.304688 L82.2352,6.9082 C82.2352,8.06055 82.1184,9.09375 80.7078,9.09375 C79.5344,9.09375 79.134,8.17773 79.134,6.9082 L79.134,0.304688 L74.4809,0.304688 L74.4809,6.9082 C74.4809,8.06055 74.3633,9.09375 72.9535,9.09375 C71.7781,9.09375 71.3789,8.17773 71.3789,6.9082 L71.3789,0.304688 L66.7262,0.304688 L66.7262,12.502" id="path56"></path>
                <path d="M97.1566,6.41484 C97.1566,5.12305 96.9203,3.38398 95.1586,3.38398 C93.3969,3.38398 93.1605,5.12305 93.1605,6.41484 C93.1605,7.70703 93.3969,9.42383 95.1586,9.42383 C96.9203,9.42383 97.1566,7.70703 97.1566,6.41484 L97.1566,6.41484 Z M101.809,6.41484 C101.809,9.79883 99.7406,12.8066 95.1586,12.8066 C90.5766,12.8066 88.5082,9.79883 88.5082,6.41484 C88.5082,3.03125 90.5766,0 95.1586,0 C99.7406,0 101.809,3.03125 101.809,6.41484 L101.809,6.41484 Z" id="path58"></path>
                <path d="M116.307,0.304688 L111.819,0.304688 L111.819,1.85547 L111.772,1.85547 C110.903,0.634766 109.657,0 107.801,0 C105.616,0 103.618,1.33984 103.618,4.13555 L103.618,12.502 L108.27,12.502 L108.27,6.10938 C108.27,4.69922 108.436,3.71289 109.797,3.71289 C110.596,3.71289 111.655,4.11211 111.655,6.0625 L111.655,12.502 L116.307,12.502 L116.307,0.304688" id="path60"></path>
                <path d="M124.791,12.502 L127.284,12.502 L127.284,9.63477 L124.791,9.63477 L124.791,5.38086 C124.791,4.25273 125.051,3.75977 126.225,3.75977 C126.579,3.75977 126.93,3.7832 127.284,3.83008 L127.284,0.304688 C126.342,0.304688 125.286,0.164062 124.299,0.164062 C122.325,0.164062 120.139,0.469531 120.139,3.80664 L120.139,9.63477 L118.071,9.63477 L118.071,12.502 L120.139,12.502 L120.139,16.2148 L124.791,16.2148 L124.791,12.502" id="path62"></path>
                <path d="M129.118,17.084 L133.77,17.084 L133.77,11.1855 L133.817,11.1855 C134.616,12.125 135.651,12.8066 137.623,12.8066 C139.809,12.8066 141.807,11.468 141.807,8.67188 L141.807,0.304688 L137.155,0.304688 L137.155,6.69727 C137.155,8.10742 136.991,9.09375 135.627,9.09375 C134.829,9.09375 133.77,8.69531 133.77,6.74414 L133.77,0.304688 L129.118,0.304688 L129.118,17.084" id="path64"></path>
            </g>
        </g>
    </g>
</svg>
